<svg width="13" height="13" viewBox="0 0 13 13" fill="none" xmlns="http://www.w3.org/2000/svg">
<path d="M6.14 12.18C7.81 12.18 9.24 11.59 10.43 10.41C11.6 9.24 12.18 7.81 12.18 6.14C12.17 4.46 11.57 3.03 10.36 1.82C9.15 0.61 7.71 0.01 6.04 0C4.37 0 2.95 0.59 1.77 1.76C0.59 2.94 0 4.37 0 6.04C0.01 7.72 0.6 9.16 1.82 10.37C3.03 11.58 4.47 12.18 6.14 12.18ZM9.77 2.43C10.79 3.45 11.3 4.69 11.33 6.14C11.34 7.6 10.85 8.83 9.85 9.83C8.84 10.84 7.6 11.34 6.14 11.33C4.68 11.32 3.45 10.8 2.43 9.78L9.77 2.43Z" fill="black"/>
</svg>
